<?xml version="1.0" encoding="utf-8"?><svg viewBox="0 0 95 26" xmlns="http://www.w3.org/2000/svg" xmlns:xlink="http://www.w3.org/1999/xlink"><style>:root>svg{display:none}:root>svg:target{display:block}</style><svg viewBox="0 0 64 18" id="Avion" xmlns="http://www.w3.org/2000/svg"><path d="M1.992 17l2.16-4.728h8.832L15.144 17h1.92L9.768.92H7.392L.12 17h1.872zM7.608 4.64l.864-2.088h.144l.888 2.088 2.784 6.096h-7.44l2.76-6.096zM25.172 17l5.664-11.856h-1.848L24.212 15.32h-.144l-4.8-10.176H17.42L23.084 17h2.088zm9.05-13.368V.92h-1.704v2.712h1.704zm0 13.368V5.144h-1.704V17h1.704zm8.674.24c3.888 0 6.456-2.568 6.456-6.168s-2.568-6.168-6.456-6.168c-3.864 0-6.432 2.568-6.432 6.168s2.568 6.168 6.432 6.168zm0-1.536c-3.264 0-4.752-1.752-4.752-4.632 0-2.856 1.488-4.632 4.752-4.632s4.776 1.776 4.776 4.632c0 2.88-1.512 4.632-4.776 4.632zM53.324 17v-5.736c0-3.048 1.512-4.8 4.392-4.8 2.712 0 3.888 1.416 3.888 3.864V17h1.704v-6.912c0-2.808-1.656-5.184-4.992-5.184-2.952 0-4.632 1.944-5.04 3.96h-.12v-3.72H51.62V17h1.704z"/></svg><svg viewBox="0 0 17 17" id="Checkmark--filled" xmlns="http://www.w3.org/2000/svg"><path d="M8.5.5a8 8 0 100 16 8 8 0 000-16zM7.357 11.694L4.5 8.837l.909-.908 1.948 1.948 4.234-4.234.912.906-5.146 5.145z"/></svg><svg viewBox="0 0 18 18" id="Logo--facebook" xmlns="http://www.w3.org/2000/svg"><path d="M17.003 0H.997A1.005 1.005 0 000 .998v16.005A1.005 1.005 0 00.998 18h8.617v-6.96h-2.34V8.318h2.34V6.315c0-2.325 1.418-3.593 3.502-3.593.698 0 1.395 0 2.093.106V5.25h-1.433c-1.132 0-1.35.54-1.35 1.327V8.31h2.7l-.352 2.723h-2.348V18h4.576a1.006 1.006 0 00.997-.997V.997A1.005 1.005 0 0017.003 0z"/></svg><svg viewBox="0 0 18 18" id="Logo--instagram" xmlns="http://www.w3.org/2000/svg"><path d="M13.804 5.276a1.08 1.08 0 100-2.16 1.08 1.08 0 000 2.16zM9 4.378a4.622 4.622 0 100 9.244 4.622 4.622 0 000-9.244zM9 12a3 3 0 110-6 3 3 0 010 6z"/><path d="M9 1.622c2.403 0 2.688.009 3.637.052.57.007 1.136.112 1.671.31a2.982 2.982 0 011.708 1.708c.198.535.303 1.1.31 1.671.043.95.052 1.234.052 3.637s-.009 2.688-.052 3.637a4.982 4.982 0 01-.31 1.671 2.98 2.98 0 01-1.708 1.708 4.98 4.98 0 01-1.671.31c-.95.043-1.234.052-3.637.052s-2.688-.009-3.637-.052a4.981 4.981 0 01-1.671-.31 2.981 2.981 0 01-1.708-1.708 4.982 4.982 0 01-.31-1.671c-.043-.95-.052-1.234-.052-3.637s.009-2.688.052-3.637c.007-.57.112-1.136.31-1.67a2.981 2.981 0 011.708-1.709 4.981 4.981 0 011.671-.31c.95-.043 1.234-.052 3.637-.052zM9 0C6.556 0 6.25.01 5.29.054a6.605 6.605 0 00-2.185.418A4.602 4.602 0 00.472 3.106 6.605 6.605 0 00.054 5.29C.01 6.25 0 6.556 0 9s.01 2.75.054 3.71c.015.747.157 1.486.418 2.185a4.602 4.602 0 002.633 2.633c.7.262 1.438.403 2.185.418C6.25 17.99 6.556 18 9 18s2.75-.01 3.71-.054a6.606 6.606 0 002.185-.419 4.6 4.6 0 002.633-2.632c.262-.7.403-1.438.418-2.185.044-.96.054-1.266.054-3.71s-.01-2.75-.054-3.71a6.603 6.603 0 00-.419-2.185A4.603 4.603 0 0014.896.473 6.605 6.605 0 0012.71.055C11.75.01 11.444 0 9 0z"/></svg><svg viewBox="0 0 18 18" id="Logo--linkedin" xmlns="http://www.w3.org/2000/svg"><path d="M16.65 0H1.35C.6 0 0 .6 0 1.275V16.65c0 .675.6 1.275 1.35 1.275h15.3c.75 0 1.35-.6 1.35-1.275V1.275C18 .6 17.4 0 16.65 0zM5.325 15.3H2.7V6.75h2.625v8.55zM4.05 5.55a1.584 1.584 0 01-1.575-1.575c0-.9.675-1.575 1.575-1.575.825 0 1.575.675 1.575 1.575 0 .9-.75 1.575-1.575 1.575zm11.325 9.675H12.75v-4.2c0-.975 0-2.325-1.425-2.325S9.75 9.825 9.75 10.875v4.275H7.125v-8.4H9.6v1.125h.075c.375-.675 1.275-1.425 2.55-1.425 2.7 0 3.225 1.8 3.225 4.125v4.65h-.075z"/></svg><svg viewBox="0 0 22 22" id="Logo--pinterest" xmlns="http://www.w3.org/2000/svg"><path d="M11 .5a10.5 10.5 0 00-3.825 20.25 9.93 9.93 0 010-3l1.237-5.25a3.788 3.788 0 01-.285-1.5c0-1.455.848-2.55 1.898-2.55a1.32 1.32 0 011.327 1.5c0 .9-.57 2.25-.87 3.495a1.5 1.5 0 001.56 1.897c1.86 0 3.3-1.972 3.3-4.807a4.147 4.147 0 00-4.387-4.275 4.545 4.545 0 00-4.74 4.56 4.065 4.065 0 00.75 2.393.33.33 0 01.075.3c-.083.33-.263 1.05-.293 1.192-.03.143-.157.232-.352.143-1.313-.616-2.13-2.528-2.13-4.073 0-3.308 2.407-6.353 6.937-6.353 3.638 0 6.473 2.596 6.473 6.068 0 3.615-2.25 6.525-5.453 6.525a2.821 2.821 0 01-2.407-1.2l-.653 2.498a11.61 11.61 0 01-1.305 2.752c1.02.301 2.08.448 3.143.435a10.5 10.5 0 100-21"/></svg><svg viewBox="0 0 20 20" id="Logo--skype" xmlns="http://www.w3.org/2000/svg"><path d="M18.933 11.41A9.045 9.045 0 008.59 1.067a5.467 5.467 0 00-7.5 7.5C1.005 9.042.96 9.52.954 10a9.045 9.045 0 0010.455 8.933 5.468 5.468 0 007.5-7.5l.023-.023zm-4.635 2.7a3.75 3.75 0 01-1.68 1.298 6.751 6.751 0 01-2.61.465A6.309 6.309 0 017 15.25a3.9 3.9 0 01-1.365-1.222 2.693 2.693 0 01-.525-1.5 1.02 1.02 0 01.323-.75 1.17 1.17 0 01.817-.278c.25-.005.491.08.683.24.209.196.37.437.472.705.13.313.296.61.495.885.198.254.456.455.75.585.4.172.833.251 1.268.233a3 3 0 001.755-.465 1.35 1.35 0 00.667-1.148 1.154 1.154 0 00-.352-.877 2.316 2.316 0 00-.938-.525c-.39-.128-.907-.255-1.56-.398-.75-.174-1.48-.42-2.182-.735A3.585 3.585 0 015.89 8.95a2.625 2.625 0 01-.525-1.657 2.738 2.738 0 01.555-1.68c.418-.52.975-.91 1.605-1.125A7.132 7.132 0 0110 4.128a6.472 6.472 0 011.943.262c.494.147.96.38 1.372.69.325.244.596.553.795.908.162.286.25.608.255.937a1.049 1.049 0 01-.322.75 1.071 1.071 0 01-.803.345.938.938 0 01-.667-.21 2.522 2.522 0 01-.488-.652 2.841 2.841 0 00-.787-.983 2.347 2.347 0 00-1.463-.345 2.73 2.73 0 00-1.5.375 1.08 1.08 0 00-.57.9.862.862 0 00.188.563c.15.173.333.313.54.412.22.114.45.204.69.27.24.068.63.165 1.177.293.69.15 1.305.315 1.868.495.503.153.982.375 1.425.66.386.244.703.582.922.982.223.457.326.963.3 1.47a3.18 3.18 0 01-.577 1.86z"/></svg><svg viewBox="0 0 18 14" id="Logo--twitter" xmlns="http://www.w3.org/2000/svg"><path d="M5.94 13.705a9.57 9.57 0 009.63-9.63v-.443a7.05 7.05 0 001.68-1.747c-.618.27-1.273.45-1.943.532a3.42 3.42 0 001.5-1.875 6.668 6.668 0 01-2.144.825A3.39 3.39 0 008.886 4.45 9.593 9.593 0 011.912.917a3.382 3.382 0 001.05 4.5 3.353 3.353 0 01-1.5-.42v.038a3.398 3.398 0 002.663 3.337 3.398 3.398 0 01-1.5.06A3.382 3.382 0 005.76 10.75a6.788 6.788 0 01-4.207 1.5 7.333 7.333 0 01-.803-.068 9.577 9.577 0 005.19 1.5"/></svg><svg viewBox="0 0 24 24" id="Purchase" xmlns="http://www.w3.org/2000/svg"><path d="M0 0h24v24H0z"/><path d="M21 4.5H3A1.5 1.5 0 001.5 6v12A1.5 1.5 0 003 19.5h18a1.5 1.5 0 001.5-1.5V6A1.5 1.5 0 0021 4.5zM21 6v2.25H3V6h18zM3 18V9.75h18V18H3z"/><path d="M12 15H4.5v1.5H12V15z"/></svg><svg viewBox="0 0 16 16" id="Search" xmlns="http://www.w3.org/2000/svg"><path d="M0 0h16v16H0z"/><path d="M14.5 13.793l-3.776-3.776a5.509 5.509 0 10-.707.707l3.776 3.776.707-.707zM2 6.5a4.5 4.5 0 119 0 4.5 4.5 0 01-9 0z"/></svg><svg viewBox="0 0 16 16" id="Shopping--cart" xmlns="http://www.w3.org/2000/svg"><path d="M0 0h16v16H0z"/><path d="M5 15a1 1 0 100-2 1 1 0 000 2zm7 0a1 1 0 100-2 1 1 0 000 2zm2-11.5H2.91L2.5 1.4A.5.5 0 002 1H0v1h1.59l1.91 9.6a.5.5 0 00.5.4h9v-1H4.41L4 9h9a.5.5 0 00.5-.39l1-4.5a.5.5 0 00-.5-.61zM12.6 8H3.81l-.7-3.5h10.265L12.6 8z"/></svg><svg viewBox="0 0 24 24" id="Sprout" xmlns="http://www.w3.org/2000/svg"><path d="M0 0h24v24H0z"/><path d="M18.75 1.5a8.257 8.257 0 00-7.684 5.268A5.246 5.246 0 006.75 4.5H4.5v2.25A5.256 5.256 0 009.75 12h.75v6.787a7.442 7.442 0 00-4.553 2.16l1.06 1.06a6.001 6.001 0 019.232.91l1.246-.834A7.486 7.486 0 0012 18.797V12h.75A8.26 8.26 0 0021 3.75V1.5h-2.25zm-9 9A3.754 3.754 0 016 6.75V6h.75a3.754 3.754 0 013.75 3.75v.75h-.75zm9.75-6.75a6.758 6.758 0 01-6.75 6.75H12v-.75A6.758 6.758 0 0118.75 3h.75v.75z"/></svg><svg viewBox="0 0 16 16" id="User--avatar" xmlns="http://www.w3.org/2000/svg"><path d="M0 0h16v16H0z"/><path d="M8 4a2.5 2.5 0 100 5 2.5 2.5 0 000-5zm0 4a1.5 1.5 0 110-3 1.5 1.5 0 010 3z"/><path d="M8 1a7 7 0 107 7 7.008 7.008 0 00-7-7zM5 13.188V12.5A1.502 1.502 0 016.5 11h3a1.502 1.502 0 011.5 1.5v.688a5.949 5.949 0 01-6 0zm6.996-.725A2.5 2.5 0 009.5 10h-3a2.5 2.5 0 00-2.496 2.463 6 6 0 117.992 0z"/></svg><svg viewBox="0 0 24 24" id="checkmark" xmlns="http://www.w3.org/2000/svg"><path d="M0 0h24v24H0z"/><path d="M10.5 16.06l-3.75-3.75 1.06-1.06 2.69 2.69 5.689-5.69 1.061 1.061-6.75 6.75z"/><path d="M12 1.5a10.5 10.5 0 100 21 10.5 10.5 0 000-21zM12 21a9 9 0 110-18 9 9 0 010 18z"/></svg><svg viewBox="0 0 12 12" id="close" xmlns="http://www.w3.org/2000/svg"><path d="M12 1.05L10.95 0 6 4.95 1.05 0 0 1.05 4.95 6 0 10.95 1.05 12 6 7.05 10.95 12 12 10.95 7.05 6 12 1.05z"/></svg><svg viewBox="0 0 24 24" id="delivery" xmlns="http://www.w3.org/2000/svg"><path d="M0 0h24v24H0z"/><path d="M12 12H3v1.5h9V12zM9 8.25H1.5v1.5H9v-1.5z"/><path d="M22.44 12.455l-2.25-5.25a.749.749 0 00-.69-.455h-2.25v-1.5a.75.75 0 00-.75-.75h-12V6h11.25v9.417a2.992 2.992 0 00-1.393 1.833H9.643a3 3 0 100 1.5h4.714a2.985 2.985 0 005.786 0h1.607a.75.75 0 00.75-.75v-5.25a.747.747 0 00-.06-.295zM6.75 19.5a1.5 1.5 0 110-3 1.5 1.5 0 010 3zm10.5-11.25h1.756L20.613 12H17.25V8.25zm0 11.25a1.5 1.5 0 110-3 1.5 1.5 0 010 3zM21 17.25h-.857A2.996 2.996 0 0017.25 15v-1.5H21v3.75z"/></svg><svg viewBox="0 0 24 24" id="delivery-black" xmlns="http://www.w3.org/2000/svg"><path d="M0 0h24v24H0z"/><path d="M12 12H3v1.5h9V12zM9 8.25H1.5v1.5H9v-1.5z"/><path d="M22.44 12.455l-2.25-5.25a.749.749 0 00-.69-.455h-2.25v-1.5a.75.75 0 00-.75-.75h-12V6h11.25v9.417a2.992 2.992 0 00-1.393 1.833H9.643a3 3 0 100 1.5h4.714a2.985 2.985 0 005.786 0h1.607a.75.75 0 00.75-.75v-5.25a.747.747 0 00-.06-.295zM6.75 19.5a1.5 1.5 0 110-3 1.5 1.5 0 010 3zm10.5-11.25h1.756L20.613 12H17.25V8.25zm0 11.25a1.5 1.5 0 110-3 1.5 1.5 0 010 3zM21 17.25h-.857A2.996 2.996 0 0017.25 15v-1.5H21v3.75z"/></svg><svg viewBox="0 0 95 26" id="logo-footer" xmlns="http://www.w3.org/2000/svg"><path d="M2.988 25l3.24-7.092h13.248L22.716 25h2.88L14.652.88h-3.564L.18 25h2.808zm8.424-18.54l1.296-3.132h.216l1.332 3.132 4.176 9.144H7.272l4.14-9.144zM37.758 25l8.495-17.784h-2.772L36.319 22.48h-.216l-7.2-15.264H26.13L34.627 25h3.132zM51.332 4.948V.88h-2.556v4.068h2.556zm0 20.052V7.216h-2.556V25h2.556zm13.012.36c5.832 0 9.684-3.852 9.684-9.252s-3.852-9.252-9.684-9.252c-5.796 0-9.648 3.852-9.648 9.252s3.852 9.252 9.648 9.252zm0-2.304c-4.896 0-7.128-2.628-7.128-6.948 0-4.284 2.232-6.948 7.128-6.948s7.164 2.664 7.164 6.948c0 4.32-2.268 6.948-7.164 6.948zM79.985 25v-8.604c0-4.572 2.269-7.2 6.588-7.2 4.069 0 5.833 2.124 5.833 5.796V25h2.555V14.632c0-4.212-2.483-7.776-7.487-7.776-4.428 0-6.949 2.916-7.56 5.94h-.18v-5.58H77.43V25h2.555z"/></svg></svg>